<?xml version="1.0" encoding="utf-8"?>
<!-- Generator: Adobe Illustrator 19.1.0, SVG Export Plug-In . SVG Version: 6.00 Build 0)  -->
<svg version="1.1" id="Layer_1" xmlns="http://www.w3.org/2000/svg" xmlns:xlink="http://www.w3.org/1999/xlink" x="0px" y="0px"
	 viewBox="0 0 72 72" style="enable-background:new 0 0 72 72;" xml:space="preserve">
<style type="text/css">
	.st0{fill:#FFFFFF;}
</style>
<g>
	<g>
		<path class="st0" d="M63.7,38.6c-0.3-0.3-3.4-4.3-9.3-7.4c-6.2-3.2-8-2-8-2c0.1-0.8-0.7-2.7-0.7-2.7c-0.3,0.6-2,0.6-2,0.6
			c0.2-1.2-1.3-2.9-1.3-2.9c-0.5,1-2.2,1.1-2.2,1.1c0.1-1.2-2.2-3.6-2.2-3.6c-0.3,2.3-2.5,3.3-2.5,3.3s-2.3-1-2.5-3.3
			c0,0-2.3,2.4-2.2,3.6c0,0-1.6-0.1-2.2-1.1c0,0-1.5,1.6-1.3,2.9c0,0-1.7,0.1-2-0.6c0,0-0.8,1.9-0.7,2.7c0,0-1.8-1.2-8,2
			c-5.9,3-9,7-9.3,7.4c0.1-0.6,1.9-9.7,10-12c6.3-1.8,12-3.5,14.6-6.4c1.9,0,3.2,0,3.5,0h0c0.3,0,1.6,0,3.5,0
			c2.6,2.9,8.3,4.6,14.6,6.4C61.8,28.9,63.6,38,63.7,38.6z"/>
		<path class="st0" d="M48.7,31.1c0,0-0.3,1.9-0.9,2.4c-0.6,0.5-0.1,2.7,1.6,3.7c1.6,1,10.2,6,12.4,14.5
			C61.8,51.7,67.6,38,48.7,31.1z"/>
		<path class="st0" d="M48.2,38c0,0-0.1,1.3-0.8,2.3c0,0,9.1,5.5,8.6,15.3c0,0-2.2-10.7-9.2-14.3c0,0-1.6,2.1-0.9,3.1
			c0.7,1,9.4,9.1,8.9,18.9c0,0,4.4-6,3.4-13.7C57.1,41.9,53.4,43.9,48.2,38z"/>
		<path class="st0" d="M44.9,45.6c0,0-0.1,3.3-1.8,4c0,0,8.5,10.5,6.5,19.8c0,0,3.3-2.9,2-10.7C50.1,50.9,47.6,47.9,44.9,45.6z"/>
		<path class="st0" d="M42.7,51.7c0,0-0.3,0.8-0.7,1s-0.1,0.8,0,1.1c0.1,0.3,3.3,7.2,2.8,18.2c0,0,3.2-4.6,2.6-10.4
			S42.7,51.7,42.7,51.7z"/>
		<path class="st0" d="M40,54c0,0,0.8,9.8-1.1,15.2c0,0,3.7-2.3,2.9-8.4S40,54,40,54z"/>
		<path class="st0" d="M23.1,31.1c0,0,0.3,1.9,0.9,2.4s0.1,2.7-1.6,3.7c-1.6,1-10.2,6-12.4,14.5C10.1,51.7,4.3,38,23.1,31.1z"/>
		<path class="st0" d="M23.7,38c0,0,0.1,1.3,0.8,2.3c0,0-9.1,5.5-8.6,15.3c0,0,2.2-10.7,9.2-14.3c0,0,1.6,2.1,0.9,3.1
			c-0.7,1-9.4,9.1-8.9,18.9c0,0-4.4-6-3.4-13.7S18.4,43.9,23.7,38z"/>
		<path class="st0" d="M27.2,45.6c0,0,0.1,3.3,1.8,4c0,0-8.5,10.5-6.5,19.8c0,0-3.3-2.9-2-10.7C21.9,50.9,24.5,47.9,27.2,45.6z"/>
		<path class="st0" d="M29.2,51.7c0,0,0.3,0.8,0.7,1s0.1,0.8,0,1.1c-0.1,0.3-3.3,7.2-2.8,18.2c0,0-3.2-4.6-2.6-10.4
			S29.2,51.7,29.2,51.7z"/>
		<path class="st0" d="M31.9,54c0,0-0.8,9.8,1.1,15.2c0,0-3.7-2.3-2.9-8.4C30.9,54.6,31.9,54,31.9,54z"/>
		<path class="st0" d="M35.7,65.6c-1.1-2.3-1.4-8.8-1.5-11c0-0.4,0.3-0.7,0.7-0.7h0.8h-0.1h0.8c0.4,0,0.7,0.3,0.7,0.7
			C37.1,56.8,36.8,63.3,35.7,65.6z"/>
		<path class="st0" d="M41.8,30.4c0,0-0.8,0.7-1.4,0.9c-0.6,0.2-0.8-0.4-0.8,1c-0.1,1.4,0.3,6.1,2.2,7.8c0,0-1.7-3.9-1.4-5.6
			c0,0,0.3-0.1,0.5,0.2c0,0-0.1-1.4,0.3-1.7c0,0,2.2,0.7,2.8-1.6c0,0,1.2,0.4,1.7,0.2c0,0-1.8-0.9-2.1-1.6c-0.4-0.7-0.9,0.1-1.2,0.2
			c0,0,0.6,1,0.7,1.1C43,31.4,42.4,31.6,41.8,30.4z"/>
		<path class="st0" d="M29.5,30.9l-1.7,2.2c0,0,0.1-1-0.7-0.9s-0.9,0.3-1.3-0.2c0,0,1.4-0.5,1.8-1.1C28.1,30.4,28.4,30.1,29.5,30.9z
			"/>
		<path class="st0" d="M30,31.2l-1.8,2.1c0,0,0.6-0.2,1.2,0c0,0,0.6,0.2,1.2,0.2c0.5,0,0,1.4,0,1.4s0.8-0.8,0.8,0
			c0,0.8-0.1,2.8-0.5,4.6c0,0,1.3-2.3,1.3-5.4S31.8,31.9,30,31.2z"/>
		<path class="st0" d="M35.4,48.6c-1.6,0-2.9,0.6-4.2,1.7c-1.3,1.1-1-2.2-1-2.2c2.5,1.9,4.8-0.8,4.8-0.8s0-0.8,0-1.8s-1.1-1.2-2.7-2
			c-1.6-0.8-1.3-2-1.3-2s0.1,0.5,1.3,0.5c1.2,0,1.1-0.3,1.7,0.2c0.6,0.5,1.5,0.6,1.5,0.6h0.1c0,0,0.9-0.1,1.5-0.6
			c0.6-0.5,0.5-0.2,1.7-0.2c1.2,0,1.3-0.5,1.3-0.5s0.2,1.2-1.3,2c-1.6,0.8-2.7,1-2.7,2s0,1.8,0,1.8s2.3,2.7,4.8,0.8
			c0,0,0.3,3.3-1,2.2c-1.3-1.1-2.6-1.7-4.2-1.7H35.4z"/>
		<path class="st0" d="M39.2,46.4c0,0,1.8,0.1,2.5,0c0.7-0.1,0.1,0.6-0.4,0.9C40.9,47.4,37.6,46.4,39.2,46.4z"/>
		<path class="st0" d="M27.3,43.5c0,0,1.4,2.5,3.4,2.3s2.4-0.5,2.9-0.3c0.5,0.2,0.2-1.1-2.7-0.4c0,0-1.5,0.3-2.4-0.9
			C27.7,43,27.1,43.1,27.3,43.5z"/>
		<path class="st0" d="M28,42.9C28,42.9,28,42.9,28,42.9c0.1,0.2,1.3,1.6,2.4,1.6c1.2,0,1.2-0.4,0.3-0.5c-0.9-0.1-2-0.9-2-0.9
			S27.4,42.2,28,42.9z"/>
		<path class="st0" d="M59.6,27c-5.8-3.8-7.3-3.7-12.4-4.3c-2.8-0.3-4.7-1.5-5.9-2.5c3.4,0.2,7.6,0.6,10.8,1.8c0,0,1.2-0.9,2.2-1.4
			c0.1,0,0.1-0.1,0.2-0.1C58.3,21.9,59.6,27,59.6,27z"/>
		<path class="st0" d="M29.1,20.3c-1.2,1-3.1,2.2-5.8,2.5c-5.1,0.6-6.6,0.4-12.4,4.3c0,0,1.4-5.7,5.7-6.8c0.1,0.1,0.2,0.2,0.4,0.3
			c1,0.5,2.2,1.4,2.2,1.4C22.1,21,25.9,20.5,29.1,20.3z"/>
	</g>
	<g>
		<path class="st0" d="M55.8,11.7c-0.6,0-1.1,0.5-1.1,1.1c0,0.1,0,0.2,0.1,0.3c-0.1,0.4-0.8,2.7-3.5,3c-2.9,0.3-4.7-0.4-5-2.5
			c-0.3-2,4.4-1.7,3.6,1c0,0,1.5-0.6,1.8-2.2c0.3-1.6-2.7-2.8-4.6-1.8c0,0,0.8-2.5-0.4-4.2c-2.4,0.9-2.1,4-2.1,4
			c-1.5-1.7-4.2-0.9-4.5,0.7c-0.3,1.6,1.3,2.3,1.3,2.3c0.1-2.8,4.2-1.4,3.2,0.4c-0.8,1.5-2.5,2.1-4.5,1.6c-0.8-0.8-1.8-2.1-1.8-2.1
			s0.3-0.3,0.6-0.1c0.3,0.2,0.8-0.1,0.6-0.6c-0.2-0.5-1.3-0.9-1.8-0.1c0,0-0.6-0.8-1.2-2c0.5-0.8,0.8-1.5,0.9-1.6
			c0,0,0.3-0.6,0.3-0.6c2.6-5.9,0.3-8,0.2-8.1c0.8,1.7-0.3,4.6-0.3,4.6C37.8,3,37,1.8,37,1.8c0.1,2.6-0.6,5-1.3,6.9
			c-0.8-1.9-1.5-4.3-1.4-6.9c0,0-0.7,1.2-0.6,2.9c0,0-1.1-2.9-0.3-4.5c-0.2,0.2-2.4,2.2,0.2,8.1c0,0,0.3,0.6,0.3,0.6
			c0.1,0.2,0.4,0.8,1,1.7c-0.7,1.3-1.3,2.2-1.3,2.2c-0.5-0.9-1.6-0.4-1.8,0.1c-0.2,0.5,0.3,0.9,0.6,0.6c0.3-0.2,0.6,0.1,0.6,0.1
			s-0.8,1.1-1.6,1.9c-2.1,0.6-3.9,0-4.7-1.6c-1-1.8,3.1-3.2,3.2-0.4c0,0,1.6-0.7,1.3-2.3c-0.3-1.6-3-2.3-4.5-0.7c0,0,0.3-3-2.1-4
			c-1.1,1.7-0.4,4.2-0.4,4.2c-1.9-1.1-4.9,0.2-4.6,1.8c0.3,1.6,1.8,2.2,1.8,2.2c-0.8-2.7,3.9-3,3.6-1c-0.3,2-2,2.8-5,2.5
			c-2.9-0.3-3.5-3-3.5-3l0,0c0-0.1,0-0.2,0-0.3c0-0.6-0.5-1.1-1.1-1.1c-0.6,0-1.1,0.5-1.1,1.1c0,0.6,0.4,1,1,1.1
			c1.6,1.9,1.4,4.2,1.4,4.2s-0.5,0.9-0.1,1.5c0.1,0.1,0.2,0.2,0.4,0.3c1,0.5,2.2,1.4,2.2,1.4c3-1,6.7-1.5,9.9-1.7
			c1.1-0.1,2.1-0.1,3-0.1c1.9,0,3.2,0,3.5,0h0c0.3,0,1.6,0,3.5,0c0.7,0,1.4,0,2.2,0.1c3.4,0.2,7.6,0.6,10.8,1.8c0,0,1.2-0.9,2.2-1.4
			c0.1,0,0.1-0.1,0.2-0.1c0.7-0.6,0.1-1.7,0.1-1.7s-0.2-2.3,1.4-4.2c0.5-0.1,0.9-0.5,0.9-1.1C57,12.2,56.5,11.7,55.8,11.7z
			 M15.5,13.4c-0.2,0.1-0.4-0.1-0.6-0.4c-0.1-0.3,0-0.6,0.2-0.7c0.2-0.1,0.4,0.1,0.6,0.4C15.7,13.1,15.7,13.4,15.5,13.4z M18.5,19.4
			l-0.2,0.4l-1-0.4l-0.2-0.1l0.4-1.2l1.2,0.5L18.5,19.4z M26.4,18.5l-1.4-1l1-1.4l1.4,1L26.4,18.5z M33.4,14.4l0.4-0.8
			c0.1,0.1,0.2,0.2,0.3,0.3c0,0,0.1,0,0.1,0.1c0.5,0.2,1.2-0.1,1.3-0.5c0.2-0.4-0.2-0.7-0.5-0.6c0,0-0.1,0-0.1,0.1
			C34.8,13,34.8,13,34.7,13c-0.2,0-0.4-0.1-0.4-0.1l1-1.7l0.4-0.6l0.4,0.7l0.9,1.6c0,0-0.2,0.2-0.5,0.1c0,0,0,0-0.1,0
			c0,0-0.1,0-0.1,0c-0.3-0.2-0.8,0.1-0.6,0.6c0.2,0.4,0.9,0.8,1.4,0.4c0,0,0,0,0,0c0.1-0.1,0.2-0.2,0.3-0.3l0.4,0.8l0.2,0.4
			c0,0,0,0,0,0h0c-0.2,0-0.9-0.2-1.5-0.2c-0.4,0-0.8,0.1-1,0.4h-0.1c-0.2-0.3-0.6-0.4-1-0.4c-0.5,0-1,0.1-1.2,0.1
			c-0.1,0-0.2,0-0.2,0L33.4,14.4z M38.2,17.2c-0.1-0.3-0.2-0.6-0.5-0.8v0c-0.2-0.2-0.5-0.2-0.8-0.2c-0.6,0-1.1,0.4-1.2,1
			c0-0.1,0-0.1,0-0.2c0,0.1,0,0.1,0,0.2c-0.1-0.6-0.6-1-1.2-1c-0.3,0-0.6,0.1-0.9,0.4c-0.2,0.2-0.3,0.4-0.4,0.6c0-0.1,0-0.1,0-0.2
			c0-0.4,0.2-0.8,0.5-1c0.2-0.2,0.5-0.3,0.8-0.3c0.7,0,1.3,0.6,1.3,1.3c0-0.7,0.6-1.3,1.3-1.3c0.2,0,0.4,0,0.6,0.1v0
			c0.4,0.2,0.7,0.6,0.7,1.1C38.2,17.1,38.2,17.2,38.2,17.2z M44.9,18.5l-1-1.4l1.4-1l1,1.4L44.9,18.5z M53.7,19.5L53,19.8l-0.2-0.4
			l-0.3-0.8l1.2-0.5l0.5,1.2L53.7,19.5z M56.4,13c-0.1,0.3-0.4,0.5-0.6,0.4c-0.2-0.1-0.3-0.4-0.2-0.6c0.1-0.3,0.4-0.5,0.6-0.4
			C56.4,12.4,56.5,12.7,56.4,13z"/>
	</g>
</g>
</svg>
